<svg width="64" height="14" viewBox="0 0 64 14" fill="none" xmlns="http://www.w3.org/2000/svg">
<mask id="mask0_3_1135" style="mask-type:luminance" maskUnits="userSpaceOnUse" x="0" y="0" width="64" height="14">
<path d="M64 0H0V14H64V0Z" fill="white"/>
</mask>
<g mask="url(#mask0_3_1135)">
<path d="M8.39733 12.2388L1.79828 5.46323C1.7663 5.43055 1.72812 5.40497 1.68612 5.38806C1.64411 5.37116 1.59917 5.3633 1.55408 5.36497C1.509 5.36663 1.46472 5.37779 1.42401 5.39776C1.3833 5.41772 1.34701 5.44606 1.3174 5.48102C0.487086 6.46317 0.0501917 7.73203 0.0947805 9.03187C0.139369 10.3317 0.662126 11.5659 1.55768 12.4856C2.45324 13.4053 3.65501 13.9422 4.92075 13.988C6.1865 14.0338 7.42211 13.5852 8.37854 12.7326C8.41258 12.7022 8.44018 12.6649 8.45962 12.6231C8.47906 12.5813 8.48993 12.5359 8.49155 12.4896C8.49318 12.4433 8.48552 12.3971 8.46906 12.354C8.4526 12.3108 8.42768 12.2716 8.39586 12.2388" fill="#181818"/>
<path d="M0.111289 1.82218L6.70476 8.5929C6.74168 8.63114 6.78592 8.66111 6.83469 8.68092C6.88345 8.70073 6.93569 8.70995 6.98809 8.708C7.0405 8.70604 7.09195 8.69296 7.13919 8.66957C7.18642 8.64618 7.22843 8.61299 7.26256 8.57209C8.08788 7.57808 8.51817 6.3012 8.46767 4.99593C8.41717 3.69066 7.88958 2.45287 6.99005 1.52923C6.09053 0.605597 4.88512 0.0639541 3.61408 0.012252C2.34303 -0.0394501 1.09969 0.402585 0.131839 1.25026C0.0920569 1.28533 0.0597738 1.32848 0.0370221 1.37698C0.0142704 1.42549 0.00154269 1.47831 -0.000360077 1.53212C-0.00226285 1.58592 0.00670056 1.63955 0.025966 1.68963C0.0452315 1.7397 0.0743819 1.78514 0.111583 1.82308" fill="#181818"/>
<path d="M15.442 10.0469C15.4047 10.0469 15.368 10.0572 15.336 10.0769C15.304 10.0966 15.2778 10.1248 15.2603 10.1587C15.2427 10.1925 15.2344 10.2305 15.2363 10.2688C15.2383 10.3071 15.2503 10.3441 15.2711 10.3759C15.6395 10.9485 16.2912 11.2348 17.2263 11.2348C17.7575 11.2469 18.278 11.0807 18.7089 10.7615C18.7821 10.7041 18.8711 10.6719 18.9631 10.6693C19.0552 10.6668 19.1457 10.6941 19.2218 10.7473L20.8256 11.8999C20.878 11.9382 20.9215 11.9879 20.9532 12.0455C20.9849 12.103 21.0039 12.1669 21.0089 12.2328C21.0139 12.2986 21.0048 12.3648 20.9822 12.4267C20.9596 12.4886 20.9241 12.5446 20.8782 12.5909C19.9649 13.5301 18.7221 13.9997 17.1497 13.9997C15.5448 13.9997 14.2586 13.5161 13.2909 12.549C12.8141 12.0742 12.4388 11.5027 12.1891 10.8707C11.9394 10.2387 11.8207 9.56013 11.8407 8.8784C11.8226 8.19407 11.9409 7.51318 12.1882 6.87747C12.4356 6.24176 12.8067 5.66462 13.279 5.18146C13.7512 4.6983 14.3146 4.31929 14.9346 4.06767C15.5545 3.81606 16.218 3.69713 16.8843 3.7182C17.5358 3.69777 18.1842 3.81709 18.7883 4.06855C19.3923 4.32001 19.9386 4.69807 20.3923 5.17859C20.8498 5.6624 21.2082 6.23561 21.4461 6.86425C21.6839 7.49288 21.7965 8.16416 21.7771 8.8383C21.7779 9.11665 21.7577 9.39465 21.7166 9.66979C21.6999 9.77498 21.6472 9.8706 21.568 9.93946C21.4888 10.0083 21.3883 10.0459 21.2845 10.0454L15.442 10.0469ZM15.3604 7.80753H18.4136C18.4473 7.80775 18.4806 7.79944 18.5104 7.78335C18.5403 7.76725 18.5658 7.74385 18.5848 7.71522C18.6038 7.6866 18.6156 7.65361 18.6192 7.61918C18.6228 7.58475 18.6182 7.54993 18.6056 7.5178C18.312 6.80248 17.7507 6.44472 16.9216 6.44452C16.0591 6.44452 15.4746 6.80117 15.1681 7.51448C15.1548 7.54671 15.1496 7.58181 15.1529 7.61662C15.1561 7.65143 15.1677 7.68488 15.1867 7.71393C15.2056 7.74299 15.2313 7.76676 15.2614 7.78309C15.2915 7.79943 15.3251 7.80783 15.3592 7.80753" fill="#181818"/>
<path d="M28.087 14.0003C27.4234 14.017 26.7633 13.8958 26.1465 13.6438C25.5297 13.3919 24.9689 13.0145 24.4977 12.5343C24.0266 12.054 23.6549 11.4809 23.4049 10.8494C23.155 10.2179 23.032 9.54099 23.0433 8.85941C23.032 8.17784 23.1551 7.50098 23.405 6.86949C23.655 6.23801 24.0267 5.66495 24.4978 5.18476C24.969 4.70457 25.5298 4.32717 26.1466 4.07525C26.7634 3.82333 27.4234 3.70208 28.087 3.71881C28.9811 3.70779 29.8618 3.94318 30.6373 4.40046C31.2694 4.76887 31.8094 5.28318 32.2147 5.90276C32.2412 5.9439 32.2592 5.99016 32.2676 6.0387C32.276 6.08724 32.2747 6.13704 32.2637 6.18504C32.2527 6.23304 32.2323 6.27822 32.2036 6.31781C32.175 6.35741 32.1388 6.39057 32.0973 6.41528L30.0043 7.65618C29.9326 7.70011 29.8477 7.71579 29.7655 7.70032C29.6834 7.68485 29.6094 7.63928 29.5575 7.57207C29.3833 7.33978 29.1566 7.15464 28.897 7.03271C28.6373 6.91077 28.3526 6.85572 28.0676 6.87233C27.8211 6.86565 27.5759 6.91153 27.3475 7.00706C27.1191 7.10259 26.9125 7.2457 26.7406 7.42736C26.5625 7.61691 26.4235 7.84147 26.332 8.08756C26.2405 8.33364 26.1984 8.59618 26.2081 8.85941C26.1983 9.12238 26.2402 9.38469 26.3315 9.6306C26.4227 9.87652 26.5614 10.101 26.7392 10.2905C26.911 10.4722 27.1176 10.6154 27.346 10.7109C27.5744 10.8064 27.8196 10.8523 28.0661 10.8456C28.3526 10.8657 28.6395 10.8117 28.9003 10.6884C29.1612 10.5652 29.3878 10.3766 29.5593 10.1401C29.6104 10.07 29.6849 10.0218 29.7685 10.0047C29.8521 9.9876 29.9389 10.0029 30.0123 10.0476L32.0987 11.2836C32.14 11.3084 32.1759 11.3414 32.2044 11.3808C32.2328 11.4203 32.2531 11.4652 32.2641 11.513C32.2751 11.5607 32.2765 11.6102 32.2683 11.6586C32.26 11.7069 32.2423 11.753 32.2162 11.794C31.8137 12.423 31.2717 12.945 30.6347 13.3171C29.8592 13.7743 28.9785 14.0097 28.0843 13.9988" fill="#181818"/>
<path d="M40.5444 3.99129H42.9905C43.0834 3.99129 43.1726 4.02922 43.2383 4.09673C43.3041 4.16424 43.341 4.2558 43.341 4.35127V13.6397C43.3406 13.7351 43.3036 13.8264 43.2379 13.8939C43.1723 13.9614 43.0833 13.9995 42.9905 14H40.5444C40.4515 13.9996 40.3624 13.9615 40.2967 13.894C40.231 13.8265 40.1939 13.7351 40.1936 13.6397V13.3412C40.1937 13.3011 40.1826 13.2619 40.1617 13.2281C40.1407 13.1943 40.1107 13.1674 40.0753 13.1507C40.0399 13.1339 40.0005 13.1279 39.9619 13.1335C39.9232 13.139 39.887 13.1559 39.8574 13.182C39.1981 13.7457 38.3582 14.0373 37.5011 14C36.8989 14.0103 36.302 13.8838 35.7529 13.6296C35.2038 13.3754 34.7162 12.9998 34.3249 12.5296C33.46 11.5173 33.0025 10.205 33.0452 8.85905C33.0028 7.51309 33.4602 6.20091 34.3249 5.18849C34.7162 4.71831 35.2038 4.34271 35.7529 4.08854C36.302 3.83436 36.899 3.70789 37.5011 3.71815C38.3582 3.68084 39.1981 3.97241 39.8574 4.53608C39.887 4.5622 39.9232 4.57905 39.9619 4.58461C40.0005 4.59017 40.0399 4.58421 40.0753 4.56743C40.1107 4.55066 40.1407 4.52378 40.1617 4.48999C40.1826 4.45621 40.1937 4.41695 40.1936 4.37689V4.35096C40.194 4.25559 40.2311 4.16426 40.2968 4.09685C40.3625 4.02943 40.4515 3.99139 40.5444 3.99099M36.7616 10.3975C37.1525 10.7728 37.6676 10.9816 38.2027 10.9816C38.7377 10.9816 39.2528 10.7728 39.6437 10.3975C39.83 10.1915 39.9746 9.94943 40.069 9.68546C40.1634 9.42149 40.2057 9.14088 40.1936 8.85996C40.2057 8.57903 40.1634 8.29842 40.069 8.03446C39.9746 7.7705 39.83 7.52844 39.6437 7.32239C39.2528 6.9471 38.7377 6.73833 38.2027 6.73833C37.6676 6.73833 37.1525 6.9471 36.7616 7.32239C36.5752 7.5284 36.4306 7.77044 36.3362 8.03442C36.2418 8.29839 36.1995 8.57902 36.2118 8.85996C36.1995 9.14089 36.2418 9.42152 36.3362 9.68549C36.4306 9.94947 36.5752 10.1915 36.7616 10.3975Z" fill="#181818"/>
<path d="M48.4223 6.79087C48.4223 6.95649 48.5876 7.09376 48.9181 7.2027L50.0722 7.58317L51.4423 8.0354C51.9307 8.20235 52.3513 8.53107 52.6381 8.97C52.9754 9.48864 53.1445 10.1035 53.1213 10.7267C53.1213 11.8428 52.7148 12.6669 51.9018 13.1989C51.0321 13.7469 50.0262 14.0241 49.0062 13.9969C47.0424 13.9969 45.6842 13.3363 44.9316 12.015C44.9081 11.9726 44.8932 11.9258 44.8878 11.8773C44.8825 11.8289 44.8868 11.7798 44.9006 11.7331C44.9143 11.6864 44.9372 11.6431 44.9677 11.6058C44.9983 11.5684 45.036 11.5379 45.0784 11.516L47.1799 10.4307C47.2596 10.3887 47.3521 10.3801 47.4379 10.4066C47.5238 10.4331 47.5962 10.4928 47.6402 10.573C47.7693 10.8193 47.965 11.0221 48.2038 11.1567C48.4426 11.2914 48.7142 11.3522 48.9859 11.3318C49.5545 11.3318 49.8388 11.1587 49.8388 10.8124C49.8388 10.6329 49.6775 10.4863 49.355 10.3725L48.2168 9.97213L46.8637 9.49548C46.392 9.32716 45.9825 9.0134 45.6911 8.59706C45.3652 8.12997 45.1986 7.56538 45.2173 6.99106C45.1965 6.52503 45.2883 6.06097 45.4844 5.64017C45.6806 5.21937 45.9749 4.8549 46.3414 4.57919C47.1273 3.99623 48.0782 3.69523 49.0473 3.72267C50.7641 3.72267 52.0018 4.35709 52.7602 5.62594C52.7857 5.66972 52.8019 5.71855 52.8077 5.76922C52.8136 5.81989 52.8089 5.87125 52.7941 5.91994C52.7792 5.96862 52.7545 6.01353 52.7215 6.05171C52.6886 6.08989 52.6481 6.12048 52.6028 6.14147L50.573 7.07969C50.499 7.11263 50.416 7.11778 50.3386 7.09425C50.2612 7.07072 50.1943 7.02 50.1497 6.95096C50.0409 6.77211 49.8894 6.62482 49.7096 6.52308C49.5297 6.42134 49.3275 6.36854 49.1222 6.3697C48.6548 6.3697 48.421 6.5114 48.4208 6.79479" fill="#181818"/>
<path d="M60.419 3.7188C60.9013 3.70273 61.3814 3.79353 61.8266 3.98502C62.2717 4.17652 62.6715 4.46422 62.9987 4.82856C63.6666 5.56901 64.0006 6.63194 64.0006 8.01736V13.6271C64.0007 13.6756 63.9914 13.7237 63.9733 13.7686C63.9552 13.8135 63.9287 13.8543 63.8953 13.8886C63.8619 13.923 63.8222 13.9502 63.7785 13.9688C63.7348 13.9874 63.688 13.997 63.6407 13.997H61.1291C61.0336 13.997 60.942 13.958 60.8744 13.8886C60.8069 13.8193 60.7689 13.7252 60.7689 13.6271V8.43732C60.7841 8.22317 60.7565 8.0081 60.6879 7.80529C60.6192 7.60248 60.5109 7.41621 60.3697 7.25792C60.2278 7.1219 60.0608 7.01642 59.8786 6.94771C59.6963 6.879 59.5026 6.84845 59.3087 6.85785C59.0909 6.84463 58.873 6.87977 58.6697 6.96088C58.4664 7.04199 58.2825 7.16716 58.1305 7.32786C57.8295 7.70692 57.6798 8.18926 57.7119 8.6773V13.6271C57.7119 13.7252 57.6739 13.8193 57.6064 13.8886C57.5388 13.958 57.4472 13.997 57.3517 13.997H54.841C54.7937 13.997 54.7469 13.9874 54.7032 13.9688C54.6595 13.9502 54.6198 13.923 54.5864 13.8886C54.553 13.8543 54.5265 13.8135 54.5084 13.7686C54.4903 13.7237 54.481 13.6756 54.4811 13.6271V0.369619C54.4811 0.27159 54.519 0.177576 54.5865 0.108259C54.654 0.0389419 54.7455 0 54.841 0L57.3526 0C57.448 -3.25655e-08 57.5396 0.0389322 57.6072 0.108241C57.6747 0.177549 57.7127 0.271562 57.7128 0.369619V4.4288C57.7134 4.47022 57.7259 4.51054 57.7487 4.54472C57.7715 4.57891 57.8035 4.60545 57.8409 4.62104C57.8783 4.63664 57.9193 4.64058 57.9589 4.6324C57.9984 4.62421 58.0347 4.60426 58.0633 4.57502C58.3812 4.27919 58.7531 4.05117 59.1575 3.90418C59.5619 3.7572 59.9907 3.69419 60.419 3.7188Z" fill="#181818"/>
</g>
</svg>
