<svg width="24" height="24" viewBox="0 0 24 24" fill="none" xmlns="http://www.w3.org/2000/svg">
<g clip-path="url(#clip0_3_1125)">
<path d="M24 0H0V24H24V0Z" fill="#FFCB05"/>
<path d="M23.2392 11.9298C23.2392 14.49 18.205 16.5654 11.9955 16.5654C5.78646 16.5654 0.752686 14.49 0.752686 11.9298C0.752686 9.36905 5.78646 7.29468 11.9955 7.29468C18.205 7.29468 23.2392 9.36905 23.2392 11.9298Z" fill="#00678F"/>
<path d="M4.78467 14.2177L5.94636 9.5802H7.80549V12.2821L9.02628 9.5802H10.9435L9.7823 14.2177H8.56105L9.25798 11.225L7.80549 14.2177H6.8187V11.225L6.06175 14.2177H4.78467Z" fill="white"/>
<path d="M11.3278 14.2763L11.5022 13.6305H12.8384L12.6639 14.2763H11.3278Z" fill="#ED1C24"/>
<path d="M14.3247 14.2177L15.4859 9.5802H16.823L17.4042 12.0471L18.0429 9.5802H19.2632L18.1011 14.2177H16.823L16.1838 11.694L15.545 14.2177H14.3247Z" fill="white"/>
<path d="M11.3278 9.5813L11.0375 10.7557H12.2573L11.5993 13.3H12.9355L13.5944 10.7557H14.8138L15.1046 9.5813H11.3278Z" fill="#FFCB05"/>
</g>
<defs>
<clipPath id="clip0_3_1125">
<rect width="24" height="24" rx="12" fill="white"/>
</clipPath>
</defs>
</svg>
