<svg width="46" height="36" viewBox="0 0 46 36" fill="none" xmlns="http://www.w3.org/2000/svg">
<path fill-rule="evenodd" clip-rule="evenodd" d="M38.8968 8.05C41.1092 8.05 42.8585 8.6 44.1448 9.8C45.4311 10.95 46.0485 12.55 45.997 14.5V25.15C45.997 25.9 45.7398 26.6 45.1738 27.15C44.6593 27.7 43.939 28 43.1158 28C42.2926 28 41.6237 27.7 41.0578 27.15C40.4918 26.6 40.2345 25.9 40.2345 25.15V16.1C40.2345 15.25 39.9773 14.45 39.4628 13.8C38.9483 13.15 38.228 12.8 37.3533 12.8C36.4786 12.8 35.7583 13.1 35.2438 13.75C34.7293 14.35 34.4721 15.15 34.4721 16.05V25.15C34.4721 25.9 34.2148 26.6 33.6488 27.15C33.1343 27.7 32.414 28 31.5908 28C30.7676 28 30.0987 27.7 29.5328 27.15C28.9668 26.6 28.7096 25.9 28.7096 25.15V16.1C28.7096 15.7 28.6067 15.3 28.5038 14.9001C28.3494 14.5 28.1951 14.15 27.9378 13.85C27.6805 13.55 27.3718 13.3 27.0117 13.1C26.6515 12.9 26.2399 12.8 25.7769 12.8C24.9022 12.8 24.1819 13.15 23.6674 13.8C23.1529 14.45 22.8956 15.2 22.8956 16.1V24.95C22.8956 25.7 22.6384 26.4 22.0724 26.95C21.5064 27.5 20.8376 27.8 20.0144 27.8H14.0975V26.95V26.85V26.75V26.65C14.1271 26.6212 14.1397 26.609 14.145 26.5943C14.149 26.5835 14.149 26.5712 14.149 26.55C14.149 26.525 14.1618 26.5125 14.1747 26.5C14.1876 26.4875 14.2004 26.475 14.2004 26.45L14.2519 26.4L14.3033 26.35L14.3548 26.3L14.4062 26.25L14.4577 26.2C14.4577 26.2 14.4577 26.15 14.5091 26.15C14.5606 26.1 14.5606 26.1 14.612 26.1C14.6635 26.05 14.6635 26.05 14.7149 26.05H14.8178H14.9207H15.0236H15.8469C16.6701 26.05 17.3904 25.4 17.3904 24.55C17.3904 23.75 16.7215 23.05 15.8469 23.05H1.54352C0.668861 23.05 0 22.4 0 21.55C0 20.75 0.668861 20.05 1.54352 20.05H14.2519C15.0751 20.05 15.7954 19.4 15.7954 18.55C15.7954 17.75 15.1265 17.05 14.2519 17.05H12.7084C11.8337 17.05 11.1648 16.4 11.1648 15.55C11.1648 14.75 11.8337 14.05 12.7084 14.05H16.9788C17.8534 14.05 18.5223 13.4 18.5223 12.55C18.5223 11.75 17.8534 11.05 16.9788 11.05H15.0236L9.6213 11C8.74664 11 8.07778 10.3 8.07778 9.5C8.07778 8.7 8.74664 8 9.6213 8H27.8349C28.9668 8 29.9958 8.25 30.9734 8.65C31.951 9.1 32.6713 9.65 33.2372 10.35C34.3177 9.55 35.2953 8.95 36.1699 8.6C37.0446 8.25 37.9707 8.05 38.8968 8.05Z" fill="#F2C506"/>
</svg>
